<svg width="100%" viewBox="0 0 680 520" xmlns="http://www.w3.org/2000/svg">
<style>
  .t  { font-family: sans-serif; font-size: 14px; fill: #3d3d3a; }
  .ts { font-family: sans-serif; font-size: 12px; fill: #6b6b65; }
  .th { font-family: sans-serif; font-size: 14px; font-weight: 500; fill: #3d3d3a; }
  @media (prefers-color-scheme: dark) {
    .t  { fill: #c2c0b6; }
    .ts { fill: #9c9a92; }
    .th { fill: #c2c0b6; }
  }
</style>
<defs>
  <marker id="arrow" viewBox="0 0 10 10" refX="8" refY="5" markerWidth="6" markerHeight="6" orient="auto-start-reverse">
    <path d="M2 1L8 5L2 9" fill="none" stroke="context-stroke" stroke-width="1.5" stroke-linecap="round" stroke-linejoin="round"/>
  </marker>
</defs>

<!-- ARDUINO UNO -->
<rect x="30" y="60" width="200" height="380" rx="10" fill="#1A6E3C" stroke="#0f4526" stroke-width="1.5"/>
<rect x="30" y="80" width="18" height="32" rx="3" fill="#888" stroke="#555" stroke-width="1"/>
<text class="th" x="130" y="95" text-anchor="middle" fill="#7ecfa0" font-size="13">Arduino Uno</text>
<text class="ts" x="200" y="125" text-anchor="end" fill="#9ad4b5" font-size="11">Digital pins</text>
<rect x="198" y="130" width="28" height="18" rx="3" fill="#EF9F27" stroke="#BA7517" stroke-width="1"/>
<text class="ts" x="212" y="143" text-anchor="middle" fill="#412402" font-size="10">13</text>
<rect x="198" y="152" width="28" height="14" rx="3" fill="#2d8f55" stroke="#1f6b3e" stroke-width="0.5"/>
<text class="ts" x="212" y="162" text-anchor="middle" fill="#9ad4b5" font-size="9">12</text>
<rect x="198" y="170" width="28" height="14" rx="3" fill="#2d8f55" stroke="#1f6b3e" stroke-width="0.5"/>
<text class="ts" x="212" y="180" text-anchor="middle" fill="#9ad4b5" font-size="9">11</text>
<rect x="198" y="188" width="28" height="14" rx="3" fill="#2d8f55" stroke="#1f6b3e" stroke-width="0.5"/>
<text class="ts" x="212" y="198" text-anchor="middle" fill="#9ad4b5" font-size="9">10</text>
<text class="ts" x="200" y="265" text-anchor="end" fill="#9ad4b5" font-size="11">Power pins</text>
<rect x="198" y="270" width="28" height="18" rx="3" fill="#444" stroke="#222" stroke-width="1"/>
<text class="ts" x="212" y="282" text-anchor="middle" fill="#eee" font-size="10">GND</text>
<rect x="198" y="292" width="28" height="14" rx="3" fill="#2d8f55" stroke="#1f6b3e" stroke-width="0.5"/>
<text class="ts" x="212" y="302" text-anchor="middle" fill="#9ad4b5" font-size="9">5V</text>
<rect x="198" y="310" width="28" height="14" rx="3" fill="#2d8f55" stroke="#1f6b3e" stroke-width="0.5"/>
<text class="ts" x="212" y="320" text-anchor="middle" fill="#9ad4b5" font-size="9">3.3V</text>
<rect x="12" y="88" width="18" height="16" rx="2" fill="#555" stroke="#333" stroke-width="0.5"/>
<text class="ts" x="21" y="130" text-anchor="middle" fill="#9ad4b5" font-size="9" transform="rotate(-90,21,130)">USB</text>

<!-- BREADBOARD -->
<rect x="330" y="80" width="310" height="360" rx="8" fill="#e8e0cc" stroke="#b0a888" stroke-width="1.5"/>
<rect x="330" y="248" width="310" height="12" rx="0" fill="#cfc8b5" stroke="#b0a888" stroke-width="0.5"/>
<rect x="338" y="88" width="294" height="12" rx="3" fill="#ffd0d0" stroke="#e08888" stroke-width="0.5"/>
<text class="ts" x="344" y="98" fill="#993535" font-size="9">+</text>
<rect x="338" y="104" width="294" height="12" rx="3" fill="#d0d8ff" stroke="#8899e0" stroke-width="0.5"/>
<text class="ts" x="344" y="114" fill="#334499" font-size="9">−</text>
<rect x="338" y="320" width="294" height="12" rx="3" fill="#ffd0d0" stroke="#e08888" stroke-width="0.5"/>
<text class="ts" x="344" y="330" fill="#993535" font-size="9">+</text>
<rect x="338" y="336" width="294" height="12" rx="3" fill="#d0d8ff" stroke="#8899e0" stroke-width="0.5"/>
<text class="ts" x="344" y="346" fill="#334499" font-size="9">−</text>

<!-- Breadboard holes -->
<g fill="#bbb" stroke="#999" stroke-width="0.3">
  <text class="ts" x="346" y="128" fill="#888" font-size="8">a</text>
  <text class="ts" x="358" y="128" fill="#888" font-size="8">b</text>
  <text class="ts" x="370" y="128" fill="#888" font-size="8">c</text>
  <text class="ts" x="382" y="128" fill="#888" font-size="8">d</text>
  <text class="ts" x="394" y="128" fill="#888" font-size="8">e</text>
  <text class="ts" x="418" y="128" fill="#888" font-size="8">f</text>
  <text class="ts" x="430" y="128" fill="#888" font-size="8">g</text>
  <text class="ts" x="442" y="128" fill="#888" font-size="8">h</text>
  <text class="ts" x="454" y="128" fill="#888" font-size="8">i</text>
  <text class="ts" x="466" y="128" fill="#888" font-size="8">j</text>
  <text class="ts" x="337" y="144" fill="#888" font-size="8">1</text>
  <text class="ts" x="337" y="158" fill="#888" font-size="8">2</text>
  <text class="ts" x="337" y="172" fill="#888" font-size="8">3</text>
  <text class="ts" x="337" y="186" fill="#888" font-size="8">4</text>
  <text class="ts" x="337" y="200" fill="#888" font-size="8">5</text>
  <circle cx="348" cy="140" r="3"/><circle cx="360" cy="140" r="3"/><circle cx="372" cy="140" r="3"/><circle cx="384" cy="140" r="3"/><circle cx="396" cy="140" r="3"/>
  <circle cx="420" cy="140" r="3"/><circle cx="432" cy="140" r="3"/><circle cx="444" cy="140" r="3"/><circle cx="456" cy="140" r="3"/><circle cx="468" cy="140" r="3"/>
  <circle cx="348" cy="154" r="3"/><circle cx="360" cy="154" r="3"/><circle cx="372" cy="154" r="3"/><circle cx="384" cy="154" r="3"/><circle cx="396" cy="154" r="3"/>
  <circle cx="420" cy="154" r="3"/><circle cx="432" cy="154" r="3"/><circle cx="444" cy="154" r="3"/><circle cx="456" cy="154" r="3"/><circle cx="468" cy="154" r="3"/>
  <circle cx="348" cy="168" r="3"/><circle cx="360" cy="168" r="3"/><circle cx="372" cy="168" r="3"/><circle cx="384" cy="168" r="3"/><circle cx="396" cy="168" r="3"/>
  <circle cx="420" cy="168" r="3"/><circle cx="432" cy="168" r="3"/><circle cx="444" cy="168" r="3"/><circle cx="456" cy="168" r="3"/><circle cx="468" cy="168" r="3"/>
  <circle cx="348" cy="182" r="3"/><circle cx="360" cy="182" r="3"/><circle cx="372" cy="182" r="3"/><circle cx="384" cy="182" r="3"/><circle cx="396" cy="182" r="3"/>
  <circle cx="420" cy="182" r="3"/><circle cx="432" cy="182" r="3"/><circle cx="444" cy="182" r="3"/><circle cx="456" cy="182" r="3"/><circle cx="468" cy="182" r="3"/>
  <circle cx="348" cy="196" r="3"/><circle cx="360" cy="196" r="3"/><circle cx="372" cy="196" r="3"/><circle cx="384" cy="196" r="3"/><circle cx="396" cy="196" r="3"/>
  <circle cx="420" cy="196" r="3"/><circle cx="432" cy="196" r="3"/><circle cx="444" cy="196" r="3"/><circle cx="456" cy="196" r="3"/><circle cx="468" cy="196" r="3"/>
  <circle cx="348" cy="210" r="3"/><circle cx="360" cy="210" r="3"/><circle cx="372" cy="210" r="3"/><circle cx="384" cy="210" r="3"/><circle cx="396" cy="210" r="3"/>
  <circle cx="420" cy="210" r="3"/><circle cx="432" cy="210" r="3"/><circle cx="444" cy="210" r="3"/><circle cx="456" cy="210" r="3"/><circle cx="468" cy="210" r="3"/>
  <circle cx="348" cy="224" r="3"/><circle cx="360" cy="224" r="3"/><circle cx="372" cy="224" r="3"/><circle cx="384" cy="224" r="3"/><circle cx="396" cy="224" r="3"/>
  <circle cx="420" cy="224" r="3"/><circle cx="432" cy="224" r="3"/><circle cx="444" cy="224" r="3"/><circle cx="456" cy="224" r="3"/><circle cx="468" cy="224" r="3"/>
  <circle cx="348" cy="238" r="3"/><circle cx="360" cy="238" r="3"/><circle cx="372" cy="238" r="3"/><circle cx="384" cy="238" r="3"/><circle cx="396" cy="238" r="3"/>
  <circle cx="420" cy="238" r="3"/><circle cx="432" cy="238" r="3"/><circle cx="444" cy="238" r="3"/><circle cx="456" cy="238" r="3"/><circle cx="468" cy="238" r="3"/>
  <circle cx="348" cy="268" r="3"/><circle cx="360" cy="268" r="3"/><circle cx="372" cy="268" r="3"/><circle cx="384" cy="268" r="3"/><circle cx="396" cy="268" r="3"/>
  <circle cx="420" cy="268" r="3"/><circle cx="432" cy="268" r="3"/><circle cx="444" cy="268" r="3"/><circle cx="456" cy="268" r="3"/><circle cx="468" cy="268" r="3"/>
  <circle cx="348" cy="282" r="3"/><circle cx="360" cy="282" r="3"/><circle cx="372" cy="282" r="3"/><circle cx="384" cy="282" r="3"/><circle cx="396" cy="282" r="3"/>
  <circle cx="420" cy="282" r="3"/><circle cx="432" cy="282" r="3"/><circle cx="444" cy="282" r="3"/><circle cx="456" cy="282" r="3"/><circle cx="468" cy="282" r="3"/>
  <circle cx="348" cy="296" r="3"/><circle cx="360" cy="296" r="3"/><circle cx="372" cy="296" r="3"/><circle cx="384" cy="296" r="3"/><circle cx="396" cy="296" r="3"/>
  <circle cx="420" cy="296" r="3"/><circle cx="432" cy="296" r="3"/><circle cx="444" cy="296" r="3"/><circle cx="456" cy="296" r="3"/><circle cx="468" cy="296" r="3"/>
  <circle cx="348" cy="310" r="3"/><circle cx="360" cy="310" r="3"/><circle cx="372" cy="310" r="3"/><circle cx="384" cy="310" r="3"/><circle cx="396" cy="310" r="3"/>
  <circle cx="420" cy="310" r="3"/><circle cx="432" cy="310" r="3"/><circle cx="444" cy="310" r="3"/><circle cx="456" cy="310" r="3"/><circle cx="468" cy="310" r="3"/>
</g>

<!-- LED -->
<ellipse cx="420" cy="192" rx="10" ry="13" fill="#ffee55" stroke="#cc9900" stroke-width="1.2" opacity="0.9"/>
<rect x="410" y="192" width="20" height="10" rx="0" fill="#ffee55" stroke="#cc9900" stroke-width="1.2" opacity="0.9"/>
<line x1="410" y1="200" x2="415" y2="200" stroke="#cc9900" stroke-width="2"/>
<line x1="420" y1="205" x2="420" y2="224" stroke="#aaa" stroke-width="1.5"/>
<line x1="432" y1="205" x2="432" y2="224" stroke="#aaa" stroke-width="1.5"/>
<text class="ts" x="448" y="200" fill="#856200" font-size="11" font-weight="500">LED</text>
<text class="ts" x="448" y="213" fill="#888" font-size="9">(+) long leg</text>

<!-- RESISTOR -->
<rect x="410" y="152" width="24" height="10" rx="4" fill="#d4b483" stroke="#8a6a30" stroke-width="1"/>
<rect x="414" y="152" width="3" height="10" rx="1" fill="#cc2222"/>
<rect x="419" y="152" width="3" height="10" rx="1" fill="#cc2222"/>
<rect x="424" y="152" width="3" height="10" rx="1" fill="#6b3a0f"/>
<line x1="420" y1="162" x2="420" y2="168" stroke="#aaa" stroke-width="1.5"/>
<line x1="420" y1="152" x2="420" y2="140" stroke="#aaa" stroke-width="1.5"/>
<text class="ts" x="448" y="158" fill="#6b4a20" font-size="11" font-weight="500">220Ω resistor</text>
<text class="ts" x="448" y="170" fill="#888" font-size="9">red-red-brown</text>

<!-- JUMPER WIRES -->
<path d="M226 139 L300 139 L300 110 L420 110 L420 138" fill="none" stroke="#EF9F27" stroke-width="2.5" stroke-linecap="round" stroke-linejoin="round"/>
<circle cx="226" cy="139" r="4" fill="#EF9F27"/>
<circle cx="420" cy="138" r="4" fill="#EF9F27"/>

<path d="M432 224 L432 350 L370 350 L370 336" fill="none" stroke="#333" stroke-width="2.5" stroke-linecap="round" stroke-linejoin="round"/>
<circle cx="432" cy="224" r="4" fill="#333"/>
<circle cx="370" cy="336" r="4" fill="#333"/>

<path d="M338 342 L300 342 L300 280 L226 280" fill="none" stroke="#333" stroke-width="2.5" stroke-linecap="round" stroke-linejoin="round"/>
<circle cx="338" cy="342" r="4" fill="#333"/>
<circle cx="226" cy="280" r="4" fill="#333"/>

<!-- CALLOUT LABELS -->
<line x1="226" y1="139" x2="226" y2="50" stroke="#aaa" stroke-width="0.5" stroke-dasharray="4 3"/>
<rect x="180" y="32" width="92" height="20" rx="4" fill="#fff8ec" stroke="#BA7517" stroke-width="0.5"/>
<text class="ts" x="226" y="46" text-anchor="middle" fill="#BA7517" font-size="11">Pin 13 (signal)</text>

<line x1="226" y1="280" x2="226" y2="470" stroke="#aaa" stroke-width="0.5" stroke-dasharray="4 3"/>
<rect x="180" y="468" width="92" height="20" rx="4" fill="#f5f5f5" stroke="#444" stroke-width="0.5"/>
<text class="ts" x="226" y="482" text-anchor="middle" fill="#444" font-size="11">GND (ground)</text>

<text class="ts" x="300" y="103" text-anchor="middle" fill="#BA7517" font-size="10">→ current flows this way →</text>

<!-- LEGEND -->
<rect x="30" y="460" width="280" height="44" rx="6" fill="#f5f5f0" stroke="#ccc" stroke-width="0.5"/>
<line x1="48" y1="476" x2="80" y2="476" stroke="#EF9F27" stroke-width="2.5" stroke-linecap="round"/>
<text class="ts" x="88" y="480" fill="#555" font-size="11">Pin 13 → resistor → LED anode</text>
<line x1="48" y1="494" x2="80" y2="494" stroke="#333" stroke-width="2.5" stroke-linecap="round"/>
<circle cx="64" cy="494" r="3" fill="#333"/>
<text class="ts" x="88" y="498" fill="#555" font-size="11">LED cathode → GND</text>
</svg>
